#
# Wavefront OBJ file: D:\hayashi\Bob1.2\BOB\body.obj
#
# Converted by the PolyTrans geometry converter from Okino Computer Graphics, Inc.
# Date/time of export: 04/08/2003 20:24:55
#
# Bounding box of geometry = (-0.086,-0.011,-0.052) to (0.095,0.271,0.076).

mtllib body.mtl

# Coordinates for object 'pants'
v  -0.023000 0.069000 0.043000 
v  -0.016000 0.007000 0.038000 
v  0.031000 0.048000 0.048000 
v  -0.065000 0.048000 0.030000 
v  -0.016000 0.007000 0.038000 
v  -0.023000 0.069000 0.043000 
v  -0.071000 0.004000 0.0 
v  -0.086000 0.063000 0.0 
v  -0.065000 0.048000 -0.030000 
v  -0.071000 0.004000 0.0 
v  -0.065000 0.048000 0.030000 
v  -0.086000 0.063000 0.0 
v  -0.019000 -0.011000 -0.044000 
v  0.057000 -0.005000 -0.031000 
v  0.0 0.0 0.0 
v  0.0 0.0 0.0 
v  -0.071000 0.004000 0.0 
v  -0.019000 -0.011000 -0.044000 
v  0.076000 0.003000 0.020000 
v  0.0 0.0 0.0 
v  0.057000 -0.005000 -0.031000 
v  -0.016000 0.007000 0.038000 
v  0.0 0.0 0.0 
v  0.076000 0.003000 0.020000 
v  -0.016000 0.007000 0.038000 
v  -0.071000 0.004000 0.0 
v  0.0 0.0 0.0 
v  -0.071000 0.004000 0.0 
v  -0.019000 -0.011000 -0.044000 
v  -0.065000 0.048000 -0.030000 
v  -0.019000 -0.011000 -0.044000 
v  0.057000 -0.005000 -0.031000 
v  0.031000 0.048000 -0.048000 
v  0.057000 -0.005000 -0.031000 
v  0.076000 0.003000 0.020000 
v  0.091000 0.048000 0.0 
v  0.076000 0.003000 0.020000 
v  -0.016000 0.007000 0.038000 
v  0.031000 0.048000 0.048000 
v  -0.016000 0.007000 0.038000 
v  -0.071000 0.004000 0.0 
v  -0.065000 0.048000 0.030000 
v  -0.023000 0.063000 -0.051000 
v  -0.019000 -0.011000 -0.044000 
v  -0.065000 0.048000 -0.030000 
v  0.031000 0.048000 -0.048000 
v  -0.019000 -0.011000 -0.044000 
v  -0.023000 0.063000 -0.051000 
v  0.078000 0.063000 -0.031000 
v  0.057000 -0.005000 -0.031000 
v  0.031000 0.048000 -0.048000 
v  0.091000 0.048000 0.0 
v  0.057000 -0.005000 -0.031000 
v  0.078000 0.063000 -0.031000 
v  0.078000 0.063000 0.031000 
v  0.076000 0.003000 0.020000 
v  0.091000 0.048000 0.0 
v  0.031000 0.048000 0.048000 
v  0.076000 0.003000 0.020000 
v  0.078000 0.063000 0.031000 
# 60 vertices

# 0 texture vertices

vn  -0.847327 -0.215422 -0.485418 
vn  -0.847327 -0.215422 0.485418 
vn  -0.661059 -0.359066 -0.658842 
vn  -0.493067 -0.443199 0.748639 
vn  -0.413516 -0.107874 -0.904084 
vn  -0.245550 -0.105436 0.963633 
vn  -0.128001 -0.094073 0.987302 
vn  -0.055540 -0.985841 0.158217 
vn  -0.054251 -0.962951 0.264164 
vn  -0.007975 -0.984015 0.177908 
vn  -0.001978 -0.987805 0.155687 
vn  0.029585 -0.092548 -0.995269 
vn  0.038022 -0.973181 0.226877 
vn  0.158934 -0.402117 0.901689 
vn  0.181269 -0.218623 -0.958825 
vn  0.369952 -0.114250 -0.921999 
vn  0.384628 -0.178844 0.905580 
vn  0.839510 -0.259260 -0.477501 
vn  0.874653 -0.407934 -0.261862 
vn  0.896945 -0.108480 0.428628 
# 20 normals

usemtl pants

o pants
g pants

s off
f 55//20 56//20 57//20
f 58//17 59//17 60//17
f 49//16 50//16 51//16
f 52//18 53//18 54//18
f 43//5 44//5 45//5
f 46//12 47//12 48//12
f 30//3 29//3 28//3
f 33//15 32//15 31//15
f 36//19 35//19 34//19
f 39//14 38//14 37//14
f 42//4 41//4 40//4
f 7//1 8//1 9//1
f 10//2 11//2 12//2
f 13//13 14//13 15//13
f 16//9 17//9 18//9
f 19//11 20//11 21//11
f 22//10 23//10 24//10
f 25//8 26//8 27//8
f 1//7 2//7 3//7
f 4//6 5//6 6//6
# 20 polygons

# Coordinates for object 'shirt'
v  0.004000 0.160000 0.064000 
v  -0.045000 0.143000 0.043000 
v  -0.023000 0.069000 0.043000 
v  0.031000 0.048000 0.048000 
v  -0.023000 0.069000 0.043000 
v  0.004000 0.160000 0.064000 
v  -0.023000 0.069000 0.043000 
v  -0.065000 0.048000 0.030000 
v  -0.045000 0.143000 0.043000 
v  -0.060000 0.121000 0.016000 
v  -0.063000 0.118000 -0.016000 
v  -0.086000 0.063000 0.0 
v  -0.086000 0.063000 0.0 
v  -0.065000 0.048000 -0.030000 
v  -0.063000 0.118000 -0.016000 
v  -0.065000 0.048000 0.030000 
v  -0.086000 0.063000 0.0 
v  -0.060000 0.121000 0.016000 
v  0.019000 0.269000 -0.030000 
v  -0.022000 0.241000 -0.048000 
v  -0.035000 0.267000 -0.019000 
v  -0.041000 0.269000 0.018000 
v  -0.077000 0.210000 0.0 
v  -0.035000 0.267000 -0.019000 
v  0.053000 0.267000 0.0 
v  0.074000 0.241000 -0.030000 
v  0.019000 0.269000 -0.030000 
v  0.019000 0.254000 0.034000 
v  0.074000 0.241000 0.030000 
v  0.053000 0.267000 0.0 
v  -0.041000 0.269000 0.018000 
v  -0.041000 0.192000 0.076000 
v  0.019000 0.254000 0.034000 
v  -0.060000 0.121000 0.016000 
v  -0.063000 0.118000 -0.016000 
v  -0.077000 0.210000 0.0 
v  -0.048000 0.143000 -0.042000 
v  0.004000 0.143000 -0.052000 
v  -0.022000 0.241000 -0.048000 
v  0.056000 0.143000 -0.042000 
v  0.070000 0.115000 -0.016000 
v  0.074000 0.241000 -0.030000 
v  0.072000 0.117000 0.016000 
v  0.056000 0.143000 0.042000 
v  0.074000 0.241000 0.030000 
v  0.004000 0.160000 0.064000 
v  -0.045000 0.143000 0.043000 
v  -0.041000 0.192000 0.076000 
v  -0.065000 0.048000 -0.030000 
v  -0.063000 0.118000 -0.016000 
v  -0.048000 0.143000 -0.042000 
v  0.056000 0.143000 -0.042000 
v  0.031000 0.048000 -0.048000 
v  0.004000 0.143000 -0.052000 
v  0.072000 0.117000 0.016000 
v  0.091000 0.048000 0.0 
v  0.070000 0.115000 -0.016000 
v  0.004000 0.160000 0.064000 
v  0.031000 0.048000 0.048000 
v  0.056000 0.143000 0.042000 
v  -0.060000 0.121000 0.016000 
v  -0.065000 0.048000 0.030000 
v  -0.045000 0.143000 0.043000 
v  -0.035000 0.267000 -0.019000 
v  0.019000 0.269000 -0.030000 
v  0.004000 0.271000 0.0 
v  -0.041000 0.269000 0.018000 
v  0.004000 0.271000 0.0 
v  -0.035000 0.267000 -0.019000 
v  0.053000 0.267000 0.0 
v  0.004000 0.271000 0.0 
v  0.019000 0.269000 -0.030000 
v  0.019000 0.254000 0.034000 
v  0.004000 0.271000 0.0 
v  0.053000 0.267000 0.0 
v  0.019000 0.254000 0.034000 
v  -0.041000 0.269000 0.018000 
v  0.004000 0.271000 0.0 
v  -0.077000 0.210000 0.0 
v  -0.035000 0.267000 -0.019000 
v  -0.063000 0.236000 -0.031000 
v  -0.063000 0.236000 -0.031000 
v  -0.022000 0.241000 -0.048000 
v  -0.035000 0.267000 -0.019000 
v  -0.063000 0.236000 -0.031000 
v  -0.063000 0.118000 -0.016000 
v  -0.077000 0.210000 0.0 
v  -0.048000 0.143000 -0.042000 
v  -0.063000 0.236000 -0.031000 
v  -0.022000 0.241000 -0.048000 
v  -0.063000 0.118000 -0.016000 
v  -0.048000 0.143000 -0.042000 
v  -0.063000 0.236000 -0.031000 
v  0.019000 0.269000 -0.030000 
v  -0.022000 0.241000 -0.048000 
v  0.032000 0.226000 -0.051000 
v  0.032000 0.226000 -0.051000 
v  0.074000 0.241000 -0.030000 
v  0.019000 0.269000 -0.030000 
v  0.032000 0.226000 -0.051000 
v  0.004000 0.143000 -0.052000 
v  -0.022000 0.241000 -0.048000 
v  0.056000 0.143000 -0.042000 
v  0.032000 0.226000 -0.051000 
v  0.074000 0.241000 -0.030000 
v  0.004000 0.143000 -0.052000 
v  0.056000 0.143000 -0.042000 
v  0.032000 0.226000 -0.051000 
v  0.053000 0.267000 0.0 
v  0.074000 0.241000 -0.030000 
v  0.095000 0.212000 0.0 
v  0.095000 0.212000 0.0 
v  0.074000 0.241000 0.030000 
v  0.053000 0.267000 0.0 
v  0.095000 0.212000 0.0 
v  0.070000 0.115000 -0.016000 
v  0.074000 0.241000 -0.030000 
v  0.072000 0.117000 0.016000 
v  0.095000 0.212000 0.0 
v  0.074000 0.241000 0.030000 
v  0.070000 0.115000 -0.016000 
v  0.072000 0.117000 0.016000 
v  0.095000 0.212000 0.0 
v  0.019000 0.254000 0.034000 
v  0.074000 0.241000 0.030000 
v  0.044000 0.190000 0.076000 
v  0.044000 0.190000 0.076000 
v  -0.041000 0.192000 0.076000 
v  0.019000 0.254000 0.034000 
v  0.044000 0.190000 0.076000 
v  0.056000 0.143000 0.042000 
v  0.074000 0.241000 0.030000 
v  0.004000 0.160000 0.064000 
v  0.044000 0.190000 0.076000 
v  -0.041000 0.192000 0.076000 
v  0.056000 0.143000 0.042000 
v  0.004000 0.160000 0.064000 
v  0.044000 0.190000 0.076000 
v  -0.041000 0.269000 0.018000 
v  -0.077000 0.210000 0.0 
v  -0.069000 0.226000 0.031000 
v  -0.041000 0.192000 0.076000 
v  -0.069000 0.226000 0.031000 
v  -0.041000 0.269000 0.018000 
v  -0.060000 0.121000 0.016000 
v  -0.069000 0.226000 0.031000 
v  -0.077000 0.210000 0.0 
v  -0.069000 0.226000 0.031000 
v  -0.045000 0.143000 0.043000 
v  -0.041000 0.192000 0.076000 
v  -0.045000 0.143000 0.043000 
v  -0.060000 0.121000 0.016000 
v  -0.069000 0.226000 0.031000 
v  -0.048000 0.143000 -0.042000 
v  0.004000 0.143000 -0.052000 
v  -0.023000 0.063000 -0.051000 
v  -0.065000 0.048000 -0.030000 
v  -0.023000 0.063000 -0.051000 
v  -0.048000 0.143000 -0.042000 
v  -0.023000 0.063000 -0.051000 
v  0.031000 0.048000 -0.048000 
v  0.004000 0.143000 -0.052000 
v  0.056000 0.143000 -0.042000 
v  0.070000 0.115000 -0.016000 
v  0.078000 0.063000 -0.031000 
v  0.031000 0.048000 -0.048000 
v  0.078000 0.063000 -0.031000 
v  0.056000 0.143000 -0.042000 
v  0.078000 0.063000 -0.031000 
v  0.091000 0.048000 0.0 
v  0.070000 0.115000 -0.016000 
v  0.072000 0.117000 0.016000 
v  0.056000 0.143000 0.042000 
v  0.078000 0.063000 0.031000 
v  0.091000 0.048000 0.0 
v  0.078000 0.063000 0.031000 
v  0.072000 0.117000 0.016000 
v  0.078000 0.063000 0.031000 
v  0.031000 0.048000 0.048000 
v  0.056000 0.143000 0.042000 
# 180 vertices

# 0 texture vertices

vn  -0.979926 -0.167833 0.107602 
vn  -0.943216 -0.124824 0.307836 
vn  -0.916370 0.397364 0.048657 
vn  -0.909196 0.137636 0.392961 
vn  -0.902793 0.109001 -0.416034 
vn  -0.892482 -0.199581 0.404528 
vn  -0.890988 -0.057254 -0.450402 
vn  -0.844427 0.532630 -0.056989 
vn  -0.833631 -0.069650 -0.547912 
vn  -0.819449 0.549607 -0.162592 
vn  -0.806908 -0.150752 0.571117 
vn  -0.774993 0.145157 -0.615074 
vn  -0.764758 0.171491 0.621076 
vn  -0.763459 0.621322 0.176321 
vn  -0.484017 0.526486 0.698956 
vn  -0.436797 -0.035377 -0.898864 
vn  -0.387427 0.046415 -0.920731 
vn  -0.366821 0.604911 -0.706771 
vn  -0.360051 -0.107042 0.926772 
vn  -0.259412 -0.077122 0.962682 
vn  -0.188838 -0.010020 -0.981957 
vn  -0.188598 0.051393 -0.980709 
vn  -0.168092 0.695333 -0.698754 
vn  -0.165339 -0.541591 0.824222 
vn  -0.158784 -0.177037 0.971311 
vn  -0.070323 0.995391 -0.065209 
vn  -0.062464 0.600484 0.797194 
vn  -0.056018 0.993969 -0.094274 
vn  -0.047662 0.028109 -0.998468 
vn  -0.008508 -0.361577 0.932303 
vn  0.012992 0.552152 0.833642 
vn  0.047546 -0.028527 -0.998462 
vn  0.073848 0.904636 0.419738 
vn  0.077515 0.456339 -0.886423 
vn  0.081335 0.996354 -0.025756 
vn  0.120075 0.908134 0.401092 
vn  0.166646 -0.549639 0.818612 
vn  0.188594 -0.051806 -0.980688 
vn  0.188833 0.012324 -0.981932 
vn  0.196492 0.590457 0.782784 
vn  0.230594 0.809411 0.540074 
vn  0.246637 0.484466 -0.839322 
vn  0.349178 -0.032743 -0.936484 
vn  0.349178 -0.032743 0.936484 
vn  0.377905 -0.041032 0.924935 
vn  0.412984 0.811219 -0.413967 
vn  0.438593 0.029426 -0.898204 
vn  0.770329 -0.094522 -0.630602 
vn  0.776938 -0.082992 0.624083 
vn  0.794402 0.606634 -0.030332 
vn  0.794402 0.606634 0.030332 
vn  0.812150 -0.078375 0.578160 
vn  0.835089 -0.086868 -0.543213 
vn  0.882580 -0.106018 0.458054 
vn  0.911175 0.201129 0.359594 
vn  0.932601 0.224900 -0.282268 
vn  0.934900 0.187571 0.301295 
vn  0.938010 0.221269 -0.266793 
vn  0.956490 0.281321 -0.077363 
vn  0.969141 -0.242285 -0.045428 
# 60 normals

usemtl shirt

o shirt
g shirt

s off
f 232//75 233//75 234//75
f 237//77 236//77 235//77
f 240//64 239//64 238//64
f 223//78 224//78 225//78
f 228//63 227//63 226//63
f 231//76 230//76 229//76
f 126//48 125//48 124//48
f 127//46 128//46 129//46
f 132//55 131//55 130//55
f 135//53 134//53 133//53
f 138//56 137//56 136//56
f 139//34 140//34 141//34
f 144//38 143//38 142//38
f 145//27 146//27 147//27
f 148//37 149//37 150//37
f 153//29 152//29 151//29
f 156//54 155//54 154//54
f 159//62 158//62 157//62
f 160//49 161//49 162//49
f 163//67 164//67 165//67
f 168//58 167//58 166//58
f 171//71 170//71 169//71
f 174//70 173//70 172//70
f 175//68 176//68 177//68
f 178//69 179//69 180//69
f 183//80 182//80 181//80
f 186//60 185//60 184//60
f 189//51 188//51 187//51
f 190//74 191//74 192//74
f 193//50 194//50 195//50
f 198//57 197//57 196//57
f 199//28 200//28 201//28
f 204//35 203//35 202//35
f 205//22 206//22 207//22
f 208//26 209//26 210//26
f 213//31 212//31 211//31
f 214//42 215//42 216//42
f 219//36 218//36 217//36
f 222//52 221//52 220//52
f 79//43 80//43 81//43
f 84//30 83//30 82//30
f 85//66 86//66 87//66
f 88//61 89//61 90//61
f 91//47 92//47 93//47
f 96//21 95//21 94//21
f 99//41 98//41 97//41
f 102//73 101//73 100//73
f 105//72 104//72 103//72
f 108//44 107//44 106//44
f 109//25 110//25 111//25
f 112//59 113//59 114//59
f 115//79 116//79 117//79
f 118//65 119//65 120//65
f 121//24 122//24 123//24
f 70//23 71//23 72//23
f 75//32 74//32 73//32
f 78//33 77//33 76//33
f 61//39 62//39 63//39
f 66//45 65//45 64//45
f 69//40 68//40 67//40
# 60 polygons
