#
# Wavefront OBJ file: D:\hayashi\Bob1.2\BOB\handl.obj
#
# Converted by the PolyTrans geometry converter from Okino Computer Graphics, Inc.
# Date/time of export: 04/08/2003 20:13:39
#
# Bounding box of geometry = (-0.00777641,-0.112317,-0.0292616) to (0.0236866,0.0142673,0.039336).

mtllib handl.mtl

# Coordinates for object 'handzl #2'
v  0.000536 -0.077931 0.020268 
v  -0.005899 -0.047348 -0.028682 
v  -0.007776 -0.095749 -0.026195 
v  -0.003092 -0.106701 0.012465 
v  0.020876 -0.042627 -0.029262 
v  0.023687 -0.073589 0.020268 
v  0.009300 -0.112317 0.010516 
v  0.004130 -0.099892 -0.028223 
v  0.022136 -0.040814 0.039336 
v  0.022535 -0.047033 0.025043 
v  0.004918 0.014267 -0.000805 
v  0.013400 -0.007656 0.026834 
v  -0.000044 -0.045367 0.039336 
v  -0.005153 -0.010928 0.026834 
v  -0.007522 0.012074 -0.000805 
v  0.000666 -0.051210 0.024727 
# 16 vertices

# 0 texture vertices

vn  -0.993241 -0.083183 0.080947 
vn  -0.986335 0.059786 0.153524 
vn  -0.394334 -0.892408 -0.219335 
vn  -0.133327 0.756136 0.640688 
vn  -0.087979 0.423390 -0.901665 
vn  -0.066923 -0.021490 -0.997527 
vn  -0.064275 0.334603 0.940165 
vn  0.025292 -0.170221 0.985081 
vn  0.043444 -0.262331 0.964000 
vn  0.176781 -0.905898 0.384835 
vn  0.933002 -0.282338 -0.223144 
vn  0.976531 0.212252 -0.036546 
# 12 normals

usemtl hand

o handzl__2
g handzl__2

s off
f 2//2 3//2 4//2 1//2
f 6//11 7//11 8//11 5//11
f 10//12 6//12 5//12 11//12 12//12 9//12
f 9//7 12//7 14//7 13//7
f 12//4 11//4 15//4 14//4
f 11//5 5//5 2//5 15//5
f 5//6 8//6 3//6 2//6
f 7//9 6//9 1//9 4//9
f 6//8 10//8 16//8 1//8
f 10//10 9//10 13//10 16//10
f 14//1 15//1 2//1 1//1 16//1 13//1
f 8//3 7//3 4//3 3//3
# 12 polygons
