#
# Wavefront OBJ file: F:\shar\libtvlibWin\tvlib_dev\character\mary\hand.obj
#
# Converted by the PolyTrans geometry converter from Okino Computer Graphics, Inc.
# Date/time of export: 02/13/2003 19:50:31
#
# Bounding box of geometry = (-0.010767,-0.119421,-0.034766) to (0.011867,0.013197,0.039336).

mtllib hand.mtl

# Coordinates for object 'hand #2'
v  -0.010767 -0.086010 0.020268 
v  -0.010767 -0.050232 0.024727 
v  -0.010767 -0.045894 -0.034766 
v  -0.010767 -0.044354 0.039336 
v  -0.010767 -0.009867 0.026834 
v  -0.008637 -0.104771 -0.026195 
v  -0.006818 -0.119060 0.011595 
v  -0.005311 0.013197 -0.000805 
v  0.004042 -0.119421 0.011595 
v  0.006770 -0.105889 -0.026195 
v  0.007320 0.013197 -0.000805 
v  0.010417 -0.085122 0.020268 
v  0.011867 -0.050232 0.024727 
v  0.011867 -0.045894 -0.034766 
v  0.011867 -0.044354 0.039336 
v  0.011867 -0.009867 0.026834 
# 16 vertices

# 0 texture vertices

vn  -1.0 0.0 0.0 
vn  -0.999255 -0.033314 0.019484 
vn  -0.998975 -0.036997 0.026087 
vn  -0.998637 -0.040678 0.032688 
vn  -0.987267 0.137311 -0.080307 
vn  -0.826662 0.048343 -0.560618 
vn  -0.052755 -0.936928 -0.345518 
vn  -0.004192 -0.142625 -0.989768 
vn  0.0 -0.927721 0.373273 
vn  0.0 0.340810 0.940132 
vn  0.0 0.498291 -0.867010 
vn  0.0 0.767791 0.640701 
vn  0.002538 -0.125254 0.992122 
vn  0.004104 -0.249551 0.968353 
vn  0.653353 0.069195 -0.753884 
vn  0.987768 0.008128 -0.155719 
vn  0.992595 -0.117849 0.029454 
vn  0.996316 -0.085535 -0.006237 
vn  0.997270 0.073652 0.005370 
vn  1.0 0.0 0.0 
# 20 normals

usemtl hand

o hand__2
g hand__2

s off
f 13//15 12//15 9//15
f 13//17 9//17 10//17
f 13//18 10//18 14//18
f 13//19 14//19 11//19
f 13//16 11//16 16//16
f 13//20 16//20 15//20
f 15//10 16//10 5//10 4//10
f 16//12 11//12 8//12 5//12
f 11//11 14//11 3//11 8//11
f 14//8 10//8 6//8 3//8
f 10//7 9//7 7//7 6//7
f 9//14 12//14 1//14 7//14
f 12//13 13//13 2//13 1//13
f 13//9 15//9 4//9 2//9
f 5//5 8//5 3//5
f 5//3 3//2 6//3
f 5//3 6//3 7//4
f 5//6 7//6 1//6
f 5//1 1//1 2//1
f 5//1 2//1 4//1
# 20 polygons
