#
# Wavefront OBJ file: D:\hayashi\Bob1.2\BOB\leg.obj
#
# Converted by the PolyTrans geometry converter from Okino Computer Graphics, Inc.
# Date/time of export: 04/08/2003 20:15:10
#
# Bounding box of geometry = (-0.027,-0.2,-0.026) to (0.026,0.016,0.024).

mtllib arm.mtl

# Coordinates for object 'leg #2'
v  -0.027000 -0.044000 -0.001000 
v  -0.009000 -0.044000 0.024000 
v  -0.001000 0.016000 -0.001000 
v  -0.001000 0.016000 -0.001000 
v  -0.009000 -0.044000 -0.026000 
v  -0.027000 -0.044000 -0.001000 
v  0.021000 -0.044000 0.014000 
v  -0.001000 0.016000 -0.001000 
v  -0.009000 -0.044000 0.024000 
v  0.021000 -0.044000 -0.017000 
v  -0.001000 0.016000 -0.001000 
v  0.021000 -0.044000 0.014000 
v  0.021000 -0.044000 -0.017000 
v  -0.009000 -0.044000 -0.026000 
v  -0.001000 0.016000 -0.001000 
v  -0.022000 -0.140000 0.014000 
v  -0.027000 -0.044000 -0.001000 
v  -0.009000 -0.044000 0.024000 
v  -0.022000 -0.140000 -0.017000 
v  -0.009000 -0.044000 -0.026000 
v  -0.027000 -0.044000 -0.001000 
v  -0.022000 -0.140000 -0.017000 
v  -0.022000 -0.140000 0.014000 
v  -0.027000 -0.044000 -0.001000 
v  0.008000 -0.140000 0.024000 
v  -0.009000 -0.044000 0.024000 
v  0.021000 -0.044000 0.014000 
v  -0.022000 -0.140000 0.014000 
v  0.008000 -0.140000 0.024000 
v  -0.009000 -0.044000 0.024000 
v  0.026000 -0.140000 -0.001000 
v  0.021000 -0.044000 0.014000 
v  0.021000 -0.044000 -0.017000 
v  0.008000 -0.140000 0.024000 
v  0.026000 -0.140000 -0.001000 
v  0.021000 -0.044000 0.014000 
v  0.008000 -0.140000 -0.026000 
v  0.021000 -0.044000 -0.017000 
v  -0.009000 -0.044000 -0.026000 
v  0.026000 -0.140000 -0.001000 
v  0.008000 -0.140000 -0.026000 
v  0.021000 -0.044000 -0.017000 
v  0.008000 -0.140000 -0.026000 
v  -0.022000 -0.140000 -0.017000 
v  -0.009000 -0.044000 -0.026000 
v  -0.001000 -0.200000 -0.001000 
v  -0.022000 -0.140000 0.014000 
v  0.008000 -0.140000 0.024000 
v  -0.022000 -0.140000 -0.017000 
v  -0.001000 -0.200000 -0.001000 
v  -0.022000 -0.140000 0.014000 
v  0.026000 -0.140000 -0.001000 
v  -0.001000 -0.200000 -0.001000 
v  0.008000 -0.140000 0.024000 
v  0.008000 -0.140000 -0.026000 
v  -0.001000 -0.200000 -0.001000 
v  0.026000 -0.140000 -0.001000 
v  0.008000 -0.140000 -0.026000 
v  -0.001000 -0.200000 -0.001000 
v  -0.022000 -0.140000 -0.017000 
# 60 vertices

# 0 texture vertices

vn  -0.998646 -0.052013 0.0 
vn  -0.943858 -0.330350 0.0 
vn  -0.810561 0.048971 0.583604 
vn  -0.810304 0.055033 -0.583419 
vn  -0.765575 0.331749 -0.551214 
vn  -0.765575 0.331749 0.551214 
vn  -0.315733 -0.055911 0.947199 
vn  -0.298674 -0.328541 0.896022 
vn  -0.286977 -0.050819 -0.956589 
vn  -0.270706 -0.335375 -0.902354 
vn  0.270295 0.339370 -0.900982 
vn  0.286977 0.050819 -0.956589 
vn  0.298183 0.332971 0.894549 
vn  0.315733 0.055911 0.947199 
vn  0.762293 -0.343032 -0.548851 
vn  0.762293 -0.343032 0.548851 
vn  0.810304 -0.055033 -0.583419 
vn  0.810561 -0.048971 0.583604 
vn  0.938876 0.344255 0.0 
vn  0.998646 0.052013 0.0 
# 20 normals

usemtl 0Mtl37_mtl

o leg__2
g leg__2

s off
f 1//6 2//6 3//6
f 4//5 5//5 6//5
f 7//13 8//13 9//13
f 10//19 11//19 12//19
f 13//11 14//11 15//11
f 18//3 17//3 16//3
f 21//4 20//4 19//4
f 22//1 23//1 24//1
f 27//14 26//14 25//14
f 28//7 29//7 30//7
f 33//20 32//20 31//20
f 34//18 35//18 36//18
f 39//12 38//12 37//12
f 40//17 41//17 42//17
f 43//9 44//9 45//9
f 48//8 47//8 46//8
f 49//2 50//2 51//2
f 54//16 53//16 52//16
f 57//15 56//15 55//15
f 58//10 59//10 60//10
# 20 polygons
