mtllib arml.mtl
v  -0.023014 -0.014245 0.001199 
v  -0.006753 -0.014245 0.024449 
v  0.000472 0.017733 0.001199 
v  0.000472 0.017733 0.001199 
v  -0.006753 -0.014245 -0.022051 
v  -0.023014 -0.014245 0.001199 
v  0.020348 -0.014245 0.015149 
v  0.000472 0.017733 0.001199 
v  -0.006753 -0.014245 0.024449 
v  0.020348 -0.014245 -0.013681 
v  0.000472 0.017733 0.001199 
v  0.020348 -0.014245 0.015149 
v  0.020348 -0.014245 -0.013681 
v  -0.006753 -0.014245 -0.022051 
v  0.000472 0.017733 0.001199 
v  -0.018497 -0.087533 0.015149 
v  -0.023014 -0.014245 0.001199 
v  -0.006753 -0.014245 0.024449 
v  -0.018497 -0.087533 -0.013681 
v  -0.006753 -0.014245 -0.022051 
v  -0.023014 -0.014245 0.001199 
v  -0.018497 -0.087533 -0.013681 
v  -0.018497 -0.087533 0.015149 
v  -0.023014 -0.014245 0.001199 
v  0.008604 -0.087533 0.024449 
v  -0.006753 -0.014245 0.024449 
v  0.020348 -0.014245 0.015149 
v  -0.018497 -0.087533 0.015149 
v  0.008604 -0.087533 0.024449 
v  -0.006753 -0.014245 0.024449 
v  0.024865 -0.087533 0.001199 
v  0.020348 -0.014245 0.015149 
v  0.020348 -0.014245 -0.013681 
v  0.008604 -0.087533 0.024449 
v  0.024865 -0.087533 0.001199 
v  0.020348 -0.014245 0.015149 
v  0.008604 -0.087533 -0.022051 
v  0.020348 -0.014245 -0.013681 
v  -0.006753 -0.014245 -0.022051 
v  0.024865 -0.087533 0.001199 
v  0.008604 -0.087533 -0.022051 
v  0.020348 -0.014245 -0.013681 
v  0.008604 -0.087533 -0.022051 
v  -0.018497 -0.087533 -0.013681 
v  -0.006753 -0.014245 -0.022051 
v  0.002259 -0.122046 0.001199 
v  -0.018497 -0.087533 0.015149 
v  0.008604 -0.087533 0.024449 
v  -0.018497 -0.087533 -0.013681 
v  0.002259 -0.122046 0.001199 
v  -0.018497 -0.087533 0.015149 
v  0.024865 -0.087533 0.001199 
v  0.002259 -0.122046 0.001199 
v  0.008604 -0.087533 0.024449 
v  0.008604 -0.087533 -0.022051 
v  0.002259 -0.122046 0.001199 
v  0.024865 -0.087533 0.001199 
v  0.008604 -0.087533 -0.022051 
v  0.002259 -0.122046 0.001199 
v  -0.018497 -0.087533 -0.013681 

vn  -0.998106 -0.061517 0.0 
vn  -0.849312 -0.527892 0.0 
vn  -0.818061 0.058486 -0.572150 
vn  -0.817692 0.065717 0.571892 
vn  -0.722030 0.472929 -0.504986 
vn  -0.722030 0.472929 0.504986 
vn  -0.323833 -0.067857 -0.943678 
vn  -0.294529 -0.061717 0.953648 
vn  -0.276558 -0.523466 -0.805915 
vn  -0.249898 -0.531833 0.809138 
vn  0.254219 0.507772 0.823129 
vn  0.281076 0.500106 -0.819079 
vn  0.294529 0.061717 0.953648 
vn  0.323833 0.067857 -0.943678 
vn  0.702111 -0.515660 -0.491055 
vn  0.702111 -0.515660 0.491055 
vn  0.817692 -0.065717 0.571892 
vn  0.818061 -0.058486 -0.572150 
vn  0.856965 0.515375 0.0 
vn  0.998106 0.061517 0.0 

usemtl Default


s off
f 3//15 2//15 1//15
f 6//16 5//16 4//16
f 9//9 8//9 7//9
f 12//2 11//2 10//2
f 15//10 14//10 13//10
f 16//18 17//18 18//18
f 19//17 20//17 21//17
f 24//20 23//20 22//20
f 25//7 26//7 27//7
f 30//14 29//14 28//14
f 31//1 32//1 33//1
f 36//3 35//3 34//3
f 37//8 38//8 39//8
f 42//4 41//4 40//4
f 45//13 44//13 43//13
f 46//12 47//12 48//12
f 51//19 50//19 49//19
f 52//5 53//5 54//5
f 55//6 56//6 57//6
f 60//11 59//11 58//11
