#
# Wavefront OBJ file: D:\hayashi\Bob1.2\BOB\jaw.obj
#
# Converted by the PolyTrans geometry converter from Okino Computer Graphics, Inc.
# Date/time of export: 04/08/2003 20:14:48
#
# Bounding box of geometry = (-0.133,0.008,0.061) to (0.132,0.292,0.246).

mtllib jaw.mtl

# Coordinates for object '0Mtl29_mtl1'
v  -0.133000 0.114000 0.061000 
v  -0.133000 0.147000 0.094000 
v  -0.133000 0.172000 0.106000 
v  -0.133000 0.189000 0.113000 
v  -0.133000 0.226000 0.127000 
v  -0.133000 0.242000 0.130000 
v  -0.132000 0.111000 0.061000 
v  -0.127000 0.137000 0.101000 
v  -0.106000 0.071000 0.061000 
v  -0.106000 0.242000 0.156000 
v  -0.104000 0.195000 0.151000 
v  -0.091000 0.052000 0.061000 
v  -0.090000 0.055000 0.073000 
v  -0.075000 0.038000 0.061000 
v  -0.074000 0.097000 0.128000 
v  -0.066000 0.242000 0.181000 
v  -0.064000 0.032000 0.061000 
v  -0.055000 0.242000 0.186000 
v  -0.051000 0.161000 0.170000 
v  -0.044000 0.242000 0.188000 
v  -0.042000 0.019000 0.061000 
v  -0.030000 0.038000 0.101000 
v  -0.010000 0.242000 0.192000 
v  -0.009000 0.097000 0.151000 
v  0.002000 0.242000 0.194000 
v  0.003000 0.195000 0.188000 
v  0.013000 0.009000 0.061000 
v  0.018000 0.008000 0.061000 
v  0.018000 0.009000 0.063000 
v  0.020000 0.009000 0.061000 
v  0.035000 0.055000 0.116000 
v  0.048000 0.137000 0.162000 
v  0.054000 0.242000 0.187000 
v  0.056000 0.239000 0.187000 
v  0.056000 0.242000 0.187000 
v  0.058000 0.242000 0.186000 
v  0.077000 0.037000 0.061000 
v  0.078000 0.038000 0.064000 
v  0.080000 0.039000 0.061000 
v  0.089000 0.097000 0.117000 
v  0.100000 0.195000 0.155000 
v  0.101000 0.065000 0.061000 
v  0.104000 0.242000 0.158000 
v  0.127000 0.097000 0.061000 
v  0.130000 0.102000 0.061000 
v  0.132000 0.108000 0.061000 
v  0.132000 0.141000 0.091000 
v  0.132000 0.159000 0.107000 
v  0.132000 0.162000 0.108000 
v  0.132000 0.235000 0.130000 
v  0.132000 0.242000 0.131000 
# 51 vertices

# 0 texture vertices

vn  -0.902459 -0.300821 0.308341 
vn  -0.894737 -0.315789 0.315789 
vn  -0.871011 -0.212585 0.442886 
vn  -0.780676 -0.486287 0.392518 
vn  -0.766500 -0.605132 0.215158 
vn  -0.765960 -0.217721 0.604899 
vn  -0.761993 -0.495296 0.417191 
vn  -0.755262 -0.231949 0.613008 
vn  -0.749704 -0.251970 0.611927 
vn  -0.710758 -0.129635 0.691388 
vn  -0.689767 -0.105554 0.716296 
vn  -0.660298 -0.491757 0.567610 
vn  -0.639881 -0.731292 0.236146 
vn  -0.622791 -0.354358 0.697540 
vn  -0.526661 -0.112056 0.842658 
vn  -0.503154 -0.340447 0.794313 
vn  -0.467550 -0.631668 0.618379 
vn  -0.443845 -0.744093 0.499326 
vn  -0.443574 -0.750664 0.489638 
vn  -0.442094 -0.200595 0.874251 
vn  -0.421572 -0.772882 0.474268 
vn  -0.405748 -0.196361 0.892643 
vn  -0.298507 -0.446341 0.843607 
vn  -0.275821 -0.562415 0.779495 
vn  -0.196490 -0.196490 0.960616 
vn  -0.177990 -0.877676 0.444976 
vn  -0.176090 -0.880451 0.440225 
vn  -0.175303 -0.199110 0.964170 
vn  -0.163040 -0.128350 0.978235 
vn  -0.158645 -0.872547 0.462053 
vn  -0.116052 -0.116052 0.986440 
vn  -0.096870 -0.341150 0.935004 
vn  -0.007691 -0.644908 0.764222 
vn  0.0 0.0 1.0 
vn  0.012144 0.008096 0.999893 
vn  0.050416 -0.762207 0.645367 
vn  0.073222 -0.360102 0.930035 
vn  0.132403 -0.122745 0.983567 
vn  0.190357 -0.503087 0.843011 
vn  0.224117 -0.248543 0.942336 
vn  0.357780 -0.758993 0.543989 
vn  0.373009 -0.498219 0.782714 
vn  0.394530 -0.829874 0.394530 
vn  0.395438 -0.247789 0.884437 
vn  0.408248 -0.816497 0.408248 
vn  0.435883 -0.887334 0.150483 
vn  0.447215 0.0 0.894427 
vn  0.481624 -0.633645 0.605419 
vn  0.507403 -0.360449 0.782700 
vn  0.517429 -0.098296 0.850062 
vn  0.535304 -0.076471 0.841191 
vn  0.552345 -0.828517 0.092056 
vn  0.560372 -0.261913 0.785739 
vn  0.651369 -0.336761 0.679934 
vn  0.686703 -0.557946 0.465977 
vn  0.688816 -0.102522 0.717650 
vn  0.690339 -0.104449 0.715907 
vn  0.700006 -0.545030 0.461447 
vn  0.741156 -0.444693 0.502927 
vn  0.742573 -0.193261 0.641276 
vn  0.743228 -0.600300 0.295384 
vn  0.746581 -0.429268 0.508277 
vn  0.749375 -0.439906 0.494894 
vn  0.896021 -0.298674 0.328542 
# 64 normals

usemtl 0Mtl29_mtl1

o 0Mtl29_mtl1
g 0Mtl29_mtl1

s off
f 45//64 46//64 47//64
f 38//61 39//61 42//61
f 37//52 39//52 38//52
f 30//46 37//46 38//46
f 2//3 8//3 3//3
f 8//7 7//7 9//7
f 2//2 1//2 8//2
f 8//1 1//1 7//1
f 21//30 27//30 22//30
f 14//21 17//21 22//21
f 22//19 17//19 21//19
f 38//43 29//43 30//43
f 22//26 27//26 29//26
f 27//27 28//27 29//27
f 28//45 30//45 29//45
f 15//24 22//24 24//24
f 15//14 11//14 8//14
f 32//37 26//37 24//37
f 11//6 3//6 8//6
f 10//15 11//15 16//15
f 11//11 10//11 6//11
f 11//9 4//9 3//9
f 6//10 5//10 11//10
f 5//8 4//8 11//8
f 26//31 23//31 20//31
f 33//38 25//38 26//38
f 25//29 23//29 26//29
f 41//50 43//50 36//50
f 41//60 49//60 50//60
f 51//57 43//57 41//57
f 41//56 50//56 51//56
f 32//49 40//49 41//49
f 49//54 41//54 40//54
f 40//58 38//58 42//58
f 44//55 40//55 42//55
f 40//53 48//53 49//53
f 47//63 48//63 40//63
f 45//62 47//62 40//62
f 40//59 44//59 45//59
f 34//44 32//44 41//44
f 36//51 34//51 41//51
f 32//40 34//40 26//40
f 26//35 34//35 33//35
f 35//34 33//34 34//34
f 34//47 36//47 35//47
f 31//42 40//42 32//42
f 40//48 31//48 38//48
f 32//39 24//39 31//39
f 24//33 22//33 31//33
f 38//41 31//41 29//41
f 31//36 22//36 29//36
f 13//12 15//12 8//12
f 15//17 13//17 22//17
f 9//4 13//4 8//4
f 13//18 14//18 22//18
f 13//13 12//13 14//13
f 13//5 9//5 12//5
f 15//23 24//23 19//23
f 19//16 11//16 15//16
f 24//32 26//32 19//32
f 16//20 11//20 19//20
f 19//25 26//25 20//25
f 20//28 18//28 19//28
f 19//22 18//22 16//22
# 64 polygons

# Coordinates for object 'TVML-bob_ha_1-0'
v  -0.099000 0.244000 0.138000 
v  -0.096000 0.224000 0.138000 
v  -0.059000 0.292000 0.138000 
v  -0.031000 0.244000 0.138000 
v  -0.003000 0.292000 0.138000 
v  0.025000 0.244000 0.138000 
v  0.056000 0.292000 0.138000 
v  0.082000 0.224000 0.138000 
v  0.082000 0.244000 0.138000 
# 9 vertices

# 0 texture vertices

vn  0.0 0.0 1.0 
# 1 normals

usemtl TVML_bob_ha_1_0

o TVML_bob_ha_1_0
g TVML_bob_ha_1_0

s off
f 52//65 53//65 59//65 60//65
f 52//65 55//65 54//65
f 55//65 57//65 56//65
f 57//65 60//65 58//65
# 4 polygons

# Coordinates for object 'lowerlip'
v  -0.111000 0.222000 0.174000 
v  -0.111000 0.222000 0.182000 
v  -0.111000 0.222000 0.208000 
v  -0.108000 0.216000 0.182000 
v  -0.106000 0.230000 0.182000 
v  -0.105000 0.209000 0.191000 
v  -0.100000 0.238000 0.191000 
v  -0.097000 0.208000 0.182000 
v  -0.095000 0.237000 0.182000 
v  -0.085000 0.235000 0.162000 
v  -0.085000 0.235000 0.220000 
v  -0.081000 0.207000 0.163000 
v  -0.081000 0.207000 0.219000 
v  -0.074000 0.243000 0.182000 
v  -0.069000 0.222000 0.146000 
v  -0.069000 0.222000 0.236000 
v  -0.068000 0.200000 0.182000 
v  -0.062000 0.197000 0.191000 
v  -0.050000 0.247000 0.174000 
v  -0.050000 0.247000 0.182000 
v  -0.050000 0.247000 0.208000 
v  -0.048000 0.197000 0.182000 
v  -0.033000 0.209000 0.144000 
v  -0.033000 0.209000 0.238000 
v  -0.031000 0.238000 0.146000 
v  -0.031000 0.238000 0.236000 
v  -0.026000 0.249000 0.182000 
v  -0.020000 0.197000 0.163000 
v  -0.020000 0.197000 0.219000 
v  -0.007000 0.194000 0.182000 
v  -0.001000 0.193000 0.191000 
v  -0.001000 0.222000 0.135000 
v  -0.001000 0.222000 0.246000 
v  -0.001000 0.252000 0.191000 
v  0.005000 0.250000 0.182000 
v  0.008000 0.194000 0.182000 
v  0.018000 0.247000 0.163000 
v  0.018000 0.247000 0.219000 
v  0.025000 0.195000 0.182000 
v  0.030000 0.207000 0.146000 
v  0.030000 0.207000 0.236000 
v  0.031000 0.235000 0.144000 
v  0.031000 0.235000 0.238000 
v  0.047000 0.247000 0.182000 
v  0.049000 0.197000 0.174000 
v  0.049000 0.197000 0.182000 
v  0.049000 0.197000 0.208000 
v  0.059000 0.245000 0.182000 
v  0.060000 0.247000 0.191000 
v  0.066000 0.244000 0.182000 
v  0.068000 0.222000 0.146000 
v  0.068000 0.222000 0.236000 
v  0.073000 0.202000 0.182000 
v  0.079000 0.238000 0.163000 
v  0.079000 0.238000 0.219000 
v  0.083000 0.209000 0.162000 
v  0.083000 0.209000 0.220000 
v  0.094000 0.207000 0.182000 
v  0.096000 0.236000 0.182000 
v  0.098000 0.207000 0.191000 
v  0.103000 0.235000 0.191000 
v  0.104000 0.215000 0.182000 
v  0.107000 0.229000 0.182000 
v  0.110000 0.222000 0.174000 
v  0.110000 0.222000 0.182000 
v  0.110000 0.222000 0.208000 
# 66 vertices

# 0 texture vertices

vn  -0.913590 -0.406471 -0.011613 
vn  -0.894427 -0.447214 0.0 
vn  -0.847998 0.529999 0.0 
vn  -0.812140 0.583001 0.023204 
vn  -0.549913 0.736884 -0.393188 
vn  -0.544850 0.757249 0.360155 
vn  -0.539754 -0.742162 -0.397318 
vn  -0.535816 -0.736747 -0.412438 
vn  -0.524958 0.323051 -0.787437 
vn  -0.524958 0.323051 0.787437 
vn  -0.522518 -0.756208 0.393858 
vn  -0.521211 -0.765003 -0.378298 
vn  -0.506290 0.795599 -0.332705 
vn  -0.499843 0.785467 -0.364965 
vn  -0.496292 -0.446663 -0.744437 
vn  -0.496292 -0.446663 0.744437 
vn  -0.267524 0.936334 -0.227396 
vn  -0.266491 -0.954924 -0.130777 
vn  -0.265916 0.930707 -0.251143 
vn  -0.265588 -0.622175 -0.736452 
vn  -0.265588 -0.622175 0.736452 
vn  -0.265357 -0.950861 0.159530 
vn  -0.263212 -0.954145 -0.142574 
vn  -0.262028 -0.949850 -0.170663 
vn  -0.256295 0.608700 -0.750864 
vn  -0.256295 0.608700 0.750864 
vn  -0.246151 0.942790 0.224850 
vn  -0.238264 0.939820 -0.244883 
vn  -0.182929 0.982968 0.017632 
vn  -0.169654 0.898869 -0.404044 
vn  -0.169654 0.898869 0.404044 
vn  -0.164399 0.986394 0.0 
vn  -0.157365 -0.959925 -0.231906 
vn  -0.157213 -0.958996 0.235819 
vn  -0.153356 -0.278828 -0.948017 
vn  -0.149311 0.354614 -0.923014 
vn  -0.144542 -0.963614 -0.224844 
vn  -0.143965 -0.878185 -0.456141 
vn  -0.143965 -0.878185 0.456141 
vn  -0.143467 -0.956448 -0.254214 
vn  -0.141127 -0.243172 0.959662 
vn  -0.137516 0.326599 0.935106 
vn  -0.110145 0.993595 -0.025241 
vn  -0.083046 0.996546 0.0 
vn  -0.072835 -0.995412 -0.062045 
vn  -0.072557 -0.991616 -0.106926 
vn  -0.065120 -0.993085 0.097680 
vn  -0.065097 -0.992728 -0.101262 
vn  -0.054853 0.939153 -0.339092 
vn  -0.054853 0.939153 0.339092 
vn  -0.031799 0.979973 0.196573 
vn  -0.031732 0.983693 -0.177032 
vn  -0.031325 0.971083 -0.236680 
vn  -0.026840 0.985773 -0.165923 
vn  -0.010145 -0.848565 -0.528994 
vn  -0.010145 -0.848565 0.528994 
vn  -0.001884 0.527456 0.849580 
vn  0.0 -0.993884 -0.110432 
vn  0.0 -0.987763 -0.155962 
vn  0.000913 0.567690 -0.823242 
vn  0.007371 -0.581396 -0.813587 
vn  0.009524 -0.540974 0.840985 
vn  0.024426 0.852698 -0.521833 
vn  0.024426 0.852698 0.521833 
vn  0.025207 -0.987098 0.158119 
vn  0.026574 -0.985651 -0.166691 
vn  0.057046 -0.969787 -0.237191 
vn  0.058641 -0.996917 -0.052127 
vn  0.059163 -0.926702 -0.371111 
vn  0.059163 -0.926702 0.371111 
vn  0.070191 0.982667 -0.171577 
vn  0.070830 0.991613 -0.108108 
vn  0.078234 -0.996925 0.004471 
vn  0.081087 0.989258 0.121630 
vn  0.081131 0.989790 -0.117188 
vn  0.083046 -0.996546 0.0 
vn  0.129236 0.875935 -0.464797 
vn  0.129236 0.875935 0.464797 
vn  0.134806 -0.341509 0.930161 
vn  0.137650 0.963546 -0.229415 
vn  0.138238 0.967663 -0.210994 
vn  0.138949 0.247971 0.958751 
vn  0.142468 0.965618 -0.217451 
vn  0.142583 0.966399 0.213875 
vn  0.146231 -0.370452 -0.917269 
vn  0.150952 0.283958 -0.946880 
vn  0.159950 0.959707 -0.231039 
vn  0.161498 0.968994 -0.187000 
vn  0.162739 -0.889034 -0.427942 
vn  0.162739 -0.889034 0.427942 
vn  0.198072 -0.980171 -0.005660 
vn  0.203955 -0.978980 0.0 
vn  0.225987 -0.949146 -0.219208 
vn  0.230403 -0.967692 -0.102401 
vn  0.246987 -0.625700 -0.739931 
vn  0.246987 -0.625700 0.739931 
vn  0.254801 0.955502 -0.148633 
vn  0.255551 0.958315 -0.127775 
vn  0.256528 0.615465 -0.745249 
vn  0.256528 0.615465 0.745249 
vn  0.262279 -0.943879 0.200757 
vn  0.262991 -0.944067 -0.198928 
vn  0.266650 0.955498 0.126182 
vn  0.267410 0.958220 -0.101517 
vn  0.495603 0.449140 -0.743405 
vn  0.495603 0.449140 0.743405 
vn  0.499919 0.785587 -0.364602 
vn  0.510762 0.802627 -0.308079 
vn  0.517830 -0.358498 -0.776744 
vn  0.517830 -0.358498 0.776744 
vn  0.520201 -0.796904 -0.307140 
vn  0.523652 -0.787438 0.325161 
vn  0.526320 0.766018 0.369058 
vn  0.530109 0.726637 -0.437016 
vn  0.575614 -0.719518 -0.388540 
vn  0.601926 -0.752407 -0.267523 
vn  0.759257 -0.650791 0.0 
vn  0.790329 -0.612432 -0.017498 
vn  0.857525 0.512949 0.039156 
vn  0.919145 0.393919 0.0 
# 120 normals

usemtl lowerlip

o lowerlip
g lowerlip

s off
f 89//130 91//130 107//130
f 107//138 91//138 99//138
f 89//112 78//112 91//112
f 91//113 78//113 82//113
f 90//110 91//110 82//110
f 90//123 96//123 91//123
f 91//133 96//133 99//133
f 117//166 107//166 120//166
f 117//155 101//155 107//155
f 126//177 117//177 120//177
f 117//161 112//161 101//161
f 126//175 112//175 117//175
f 89//121 101//121 84//121
f 84//104 73//104 89//104
f 101//127 93//127 84//127
f 84//86 76//86 73//86
f 93//106 76//106 84//106
f 78//87 73//87 66//87
f 78//83 66//83 68//83
f 73//76 63//76 66//76
f 64//66 66//66 63//66
f 66//72 64//72 68//72
f 88//103 72//103 83//103
f 83//120 100//120 88//120
f 72//85 75//85 83//85
f 83//126 92//126 100//126
f 75//100 92//100 83//100
f 100//154 116//154 105//154
f 116//167 113//167 105//167
f 111//160 116//160 100//160
f 124//174 116//174 111//174
f 116//176 124//176 122//176
f 118//158 113//158 116//158
f 122//180 118//180 116//180
f 93//147 112//147 103//147
f 115//165 103//165 112//165
f 103//122 86//122 93//122
f 115//143 98//143 103//143
f 98//129 86//129 103//129
f 63//75 76//75 71//75
f 86//91 71//91 76//91
f 71//71 67//71 63//71
f 81//96 71//96 86//96
f 81//92 67//92 71//92
f 70//74 75//74 61//74
f 70//70 61//70 65//70
f 70//90 85//90 75//90
f 70//95 79//95 85//95
f 70//93 74//93 79//93
f 65//78 69//78 70//78
f 69//82 74//82 70//82
f 102//151 111//151 92//151
f 85//125 102//125 92//125
f 102//164 114//164 111//164
f 85//128 97//128 102//128
f 97//142 114//142 102//142
f 121//178 115//178 126//178
f 123//184 121//184 126//184
f 109//168 115//168 121//168
f 109//169 121//169 119//169
f 121//173 123//173 119//173
f 94//116 81//116 98//116
f 98//139 109//139 94//139
f 81//108 94//108 87//108
f 94//140 109//140 104//140
f 95//136 94//136 104//136
f 94//118 95//118 87//118
f 107//135 101//135 89//135
f 113//156 120//156 107//156
f 113//157 107//157 106//157
f 99//141 106//141 107//141
f 89//99 73//99 78//99
f 77//88 78//88 68//88
f 77//102 82//102 78//102
f 100//134 105//134 88//134
f 88//131 105//131 99//131
f 88//98 82//98 72//98
f 88//111 90//111 82//111
f 96//124 90//124 88//124
f 88//132 99//132 96//132
f 106//157 105//157 113//157
f 105//141 106//141 99//141
f 126//183 120//183 122//183
f 120//159 113//159 118//159
f 120//181 118//181 122//181
f 101//144 112//144 93//144
f 73//81 76//81 63//81
f 75//80 72//80 61//80
f 64//77 61//77 72//77
f 68//89 72//89 77//89
f 72//73 68//73 64//73
f 72//105 82//105 77//105
f 100//150 92//150 111//150
f 112//171 126//171 115//171
f 126//185 125//185 123//185
f 122//182 125//182 126//182
f 93//107 86//107 76//107
f 63//69 67//69 65//69
f 65//68 62//68 63//68
f 63//67 62//67 64//67
f 61//68 62//68 65//68
f 61//67 64//67 62//67
f 75//101 85//101 92//101
f 111//170 114//170 124//170
f 123//179 124//179 114//179
f 124//185 123//185 125//185
f 125//182 122//182 124//182
f 115//149 109//149 98//149
f 86//115 98//115 81//115
f 74//94 67//94 81//94
f 67//79 69//79 65//79
f 67//84 74//84 69//84
f 85//114 79//114 97//114
f 97//148 104//148 114//148
f 119//163 114//163 110//163
f 114//146 108//146 110//146
f 104//153 108//153 114//153
f 114//172 119//172 123//172
f 74//97 81//97 80//97
f 87//109 80//109 81//109
f 97//119 79//119 87//119
f 80//97 79//97 74//97
f 79//109 80//109 87//109
f 104//137 97//137 95//137
f 87//117 95//117 97//117
f 110//162 109//162 119//162
f 109//145 110//145 108//145
f 108//152 104//152 109//152
# 128 polygons
